<svg width="1920" height="101" viewBox="0 0 1920 101" fill="none" xmlns="http://www.w3.org/2000/svg">
<g filter="url(#filter0_d)">
<rect width="1920" height="100" fill="white"/>
<path d="M48.8169 33.4212V41.1639C52.7621 41.1639 56.0434 41.1128 59.5654 41.1219C60.7127 41.1219 61.7122 41.4958 62.5768 42.2054C63.4267 42.924 64.0888 43.9272 64.5704 45.2222C65.0373 46.5099 65.2799 48.0274 65.289 49.7547C65.2799 51.5148 65.0373 53.0469 64.5704 54.3547C64.0888 55.6625 63.4304 56.6748 62.5768 57.3898C61.7177 58.1139 60.7127 58.4823 59.5654 58.4823L56.4264 58.6227C54.9052 61.158 53.499 63.3431 51.3941 66.3454L59.6585 66.2286C61.7597 66.2013 63.6693 65.8219 65.3693 65.0376C67.0728 64.2588 68.5247 63.1279 69.7394 61.676C70.9524 60.2187 71.8826 58.4768 72.5264 56.4504C73.1575 54.4149 73.4694 52.155 73.4567 49.6617C73.4475 47.2103 73.1192 44.9924 72.4608 43.0042C71.8023 41.0198 70.8739 39.3053 69.6555 37.8808C68.4408 36.4526 66.9835 35.3546 65.2945 34.5885C63.6091 33.8243 61.7305 33.4321 59.6585 33.4212H48.8169Z" fill="#51668F"/>
<path fill-rule="evenodd" clip-rule="evenodd" d="M47.7883 47.9161C49.5028 47.9161 50.8945 49.3078 50.8945 51.0168C50.8945 52.7295 49.5028 54.1212 47.7883 54.1212C46.0756 54.1212 44.6839 52.7295 44.6839 51.0168C44.6839 49.3078 46.0756 47.9161 47.7883 47.9161ZM47.7281 43.037C51.9998 43.037 55.4598 46.5007 55.4598 50.7688C55.4598 55.0368 51.7627 61.3076 47.7281 66.5788C44.2826 61.7745 40 55.0368 40 50.7688C40 46.5007 43.4655 43.037 47.7281 43.037Z" fill="#71BF45"/>
<path d="M91.3167 38.4316L91.8438 38.4371C94.1821 38.4371 94.939 41.4119 94.9482 43.2797C94.939 45.1383 94.2478 48.1405 91.9003 48.1405L91.3167 48.1678V38.4316ZM107.364 51.7391V48.1733H105.651V38.4316H107.196V34.8658H99.964V38.4316H101.482V48.1733H99.7907V51.7391H107.364ZM108.279 46.4114C108.256 47.2522 108.382 48.0183 108.648 48.695C108.92 49.3771 109.312 49.9663 109.83 50.4551C110.353 50.9457 110.979 51.3196 111.716 51.5859C112.449 51.8468 113.272 51.9781 114.187 51.9817C115.077 51.9781 115.891 51.8559 116.615 51.6133C117.343 51.3671 117.965 51.0169 118.486 50.5536C119.01 50.0921 119.411 49.5413 119.686 48.8865C119.971 48.2426 120.111 47.5149 120.117 46.7014C120.111 45.8843 120.009 45.1893 119.809 44.6057C119.608 44.0257 119.327 43.546 118.968 43.1575C118.608 42.7708 118.187 42.4571 117.702 42.2199C117.222 41.9865 116.693 41.8041 116.128 41.6782C115.559 41.5506 114.966 41.4575 114.355 41.3973C113.706 41.308 113.233 41.1402 112.934 40.8921C112.637 40.6404 112.491 40.3285 112.496 39.9546C112.5 39.464 112.65 39.09 112.934 38.8201C113.221 38.5483 113.613 38.4134 114.112 38.4097C114.448 38.4134 114.733 38.4845 114.975 38.6322C115.218 38.7818 115.4 38.9824 115.526 39.2451C115.652 39.5059 115.705 39.805 115.681 40.1461H119.584C119.608 39.3144 119.491 38.5629 119.238 37.8862C118.991 37.2132 118.623 36.635 118.132 36.1444C117.642 35.6628 117.053 35.2853 116.361 35.0245C115.676 34.7618 114.9 34.6268 114.041 34.6268C113.191 34.6268 112.425 34.749 111.736 34.9953C111.048 35.2433 110.452 35.5972 109.956 36.0641C109.456 36.5219 109.073 37.0873 108.803 37.7458C108.54 38.4042 108.402 39.1521 108.402 39.9728C108.402 40.6787 108.498 41.3043 108.69 41.846C108.887 42.3823 109.153 42.8547 109.494 43.2468C109.835 43.6426 110.222 43.9709 110.671 44.2354C111.114 44.4981 111.59 44.6987 112.099 44.8428C112.608 44.9832 113.126 45.0726 113.655 45.1146C113.868 45.1273 114.112 45.151 114.377 45.1893C114.64 45.2258 114.897 45.2969 115.139 45.39C115.386 45.4921 115.588 45.6417 115.747 45.8423C115.905 46.0429 115.989 46.3147 115.993 46.6558C115.993 46.9768 115.914 47.2522 115.759 47.4766C115.606 47.7009 115.391 47.8742 115.11 47.9909C114.831 48.1113 114.508 48.1733 114.134 48.1733C113.748 48.1678 113.412 48.0985 113.126 47.949C112.832 47.7994 112.613 47.5933 112.458 47.3325C112.299 47.0662 112.23 46.7616 112.234 46.4114H108.279ZM125.262 46.2947H129.53V42.4333H125.262V38.6979H130.156V34.8658H121.093V51.7391H125.262V46.2947ZM134.927 43.3015C134.933 42.3914 135.068 41.6034 135.338 40.9249C135.604 40.2483 135.983 39.7211 136.469 39.3472C136.959 38.9697 137.528 38.7727 138.181 38.7727C138.821 38.7727 139.378 38.9697 139.848 39.3472C140.321 39.7211 140.686 40.2483 140.946 40.9249C141.204 41.6034 141.339 42.3914 141.339 43.3015C141.339 44.2081 141.204 45.0015 140.946 45.6891C140.686 46.3658 140.321 46.8929 139.848 47.2759C139.378 47.659 138.821 47.8505 138.181 47.8596C137.528 47.8505 136.959 47.659 136.469 47.2759C135.983 46.8929 135.604 46.3658 135.338 45.6891C135.068 45.0015 134.933 44.2081 134.927 43.3015ZM145.535 43.3015C145.532 41.9956 145.355 40.8137 145.008 39.7485C144.658 38.6851 144.158 37.7731 143.515 37.0126C142.865 36.2465 142.09 35.6628 141.194 35.247C140.292 34.8366 139.288 34.6268 138.181 34.6268C137.07 34.6268 136.062 34.8366 135.152 35.247C134.245 35.6628 133.466 36.2465 132.817 37.0126C132.168 37.7731 131.664 38.6851 131.314 39.7485C130.964 40.8137 130.785 41.9956 130.782 43.3015C130.785 44.6093 130.964 45.7949 131.314 46.8564C131.664 47.9198 132.168 48.8299 132.817 49.596C133.466 50.3584 134.245 50.9457 135.152 51.3616C136.062 51.7683 137.07 51.9781 138.181 51.9817C139.288 51.9781 140.292 51.7683 141.194 51.3616C142.09 50.9457 142.865 50.3584 143.515 49.596C144.158 48.8299 144.658 47.9198 145.008 46.8564C145.355 45.7949 145.532 44.6093 145.535 43.3015ZM150.491 43.3015C150.495 42.3914 150.63 41.6034 150.896 40.9249C151.168 40.2483 151.545 39.7211 152.031 39.3472C152.518 38.9697 153.087 38.7727 153.745 38.7727C154.38 38.7727 154.936 38.9697 155.412 39.3472C155.883 39.7211 156.248 40.2483 156.508 40.9249C156.766 41.6034 156.897 42.3914 156.9 43.3015C156.897 44.2081 156.766 45.0015 156.508 45.6891C156.248 46.3658 155.883 46.8929 155.412 47.2759C154.936 47.659 154.38 47.8505 153.745 47.8596C153.087 47.8505 152.518 47.659 152.031 47.2759C151.545 46.8929 151.168 46.3658 150.896 45.6891C150.63 45.0015 150.495 44.2081 150.491 43.3015ZM161.094 43.3015C161.094 41.9956 160.917 40.8137 160.572 39.7485C160.222 38.6851 159.722 37.7731 159.076 37.0126C158.429 36.2465 157.654 35.6628 156.751 35.247C155.855 34.8366 154.852 34.6268 153.745 34.6268C152.629 34.6268 151.62 34.8366 150.714 35.247C149.809 35.6628 149.028 36.2465 148.379 37.0126C147.726 37.7731 147.226 38.6851 146.876 39.7485C146.522 40.8137 146.343 41.9956 146.343 43.3015C146.343 44.6093 146.522 45.7949 146.876 46.8564C147.226 47.9198 147.726 48.8299 148.379 49.596C149.028 50.3584 149.809 50.9457 150.714 51.3616C151.62 51.7683 152.629 51.9781 153.745 51.9817C154.852 51.9781 155.855 51.7683 156.751 51.3616C157.654 50.9457 158.429 50.3584 159.076 49.596C159.722 48.8299 160.222 47.9198 160.572 46.8564C160.917 45.7949 161.094 44.6093 161.094 43.3015ZM167.169 38.4316L167.702 38.4371C170.037 38.4371 170.792 41.4119 170.803 43.2797C170.797 45.1383 170.102 48.1405 167.753 48.1405L167.169 48.1678V38.4316ZM163.111 38.4553V48.1733H161.719V51.7391C163.784 51.7391 165.838 51.7446 167.912 51.7391C168.99 51.7391 169.971 51.5294 170.845 51.1281C171.716 50.7269 172.468 50.1523 173.09 49.4045C174.518 47.6918 175.014 45.4137 175 43.2322C174.99 41.0836 174.472 38.8438 173.042 37.1767C171.62 35.495 169.672 34.8877 167.523 34.8877L161.887 34.8658V38.4316C162.29 38.4316 162.682 38.4553 163.111 38.4553ZM87.2529 38.4553V48.1733H85.8667V51.7391C87.9259 51.7391 89.9797 51.7446 92.0535 51.7391C93.137 51.7391 94.1183 51.5294 94.9901 51.1281C95.8638 50.7269 96.6116 50.1523 97.2372 49.4045C98.6654 47.6918 99.156 45.4137 99.1414 43.2322C99.1378 41.0836 98.6179 38.8438 97.1898 37.1767C95.7653 35.495 93.8191 34.8877 91.6705 34.8877L86.0345 34.8658V38.4316C86.4358 38.4316 86.8243 38.4553 87.2529 38.4553Z" fill="#51668F"/>
<path d="M128.474 64.5707L128.662 65.6869C128.306 65.7617 127.989 65.8 127.708 65.8C127.247 65.8 126.897 65.7252 126.639 65.5793C126.391 65.4352 126.214 65.2474 126.112 65.0102C126.008 64.7768 125.957 64.277 125.957 63.5256V59.2429H125.029V58.2635H125.957V56.4176L127.208 55.6661V58.2635H128.474V59.2429H127.208V63.5949C127.208 63.9542 127.232 64.184 127.274 64.2861C127.322 64.3883 127.391 64.4685 127.495 64.5342C127.591 64.5889 127.737 64.6217 127.923 64.6217C128.064 64.6217 128.25 64.6035 128.474 64.5707ZM118.702 61.2657H122.853C122.796 60.6437 122.638 60.1731 122.377 59.8594C121.976 59.3742 121.456 59.1317 120.817 59.1317C120.237 59.1317 119.752 59.3268 119.354 59.7153C118.962 60.0983 118.743 60.62 118.702 61.2657ZM122.838 63.3049L124.141 63.4654C123.936 64.2259 123.557 64.8187 123.002 65.2382C122.446 65.6541 121.731 65.8639 120.872 65.8639C119.785 65.8639 118.92 65.5337 118.286 64.8662C117.645 64.1931 117.328 63.2538 117.328 62.0445C117.328 60.7933 117.651 59.8229 118.295 59.1317C118.94 58.4404 119.776 58.0956 120.803 58.0956C121.797 58.0956 122.61 58.4349 123.24 59.1134C123.871 59.7901 124.182 60.7367 124.182 61.9661C124.182 62.0445 124.182 62.1576 124.179 62.3017H118.632C118.678 63.1188 118.911 63.7444 119.323 64.1785C119.743 64.6126 120.257 64.8333 120.877 64.8333C121.339 64.8333 121.731 64.7111 122.063 64.4685C122.39 64.2259 122.647 63.8374 122.838 63.3049ZM110.587 65.7015V55.4327H111.847V61.2894L114.831 58.2635H116.46L113.616 61.0231L116.75 65.7015H115.194L112.739 61.8949L111.847 62.754V65.7015H110.587ZM105.792 65.7015V58.2635H106.926V59.3925C107.214 58.8654 107.481 58.5152 107.723 58.351C107.971 58.1832 108.243 58.0956 108.537 58.0956C108.962 58.0956 109.39 58.2306 109.83 58.5006L109.396 59.6734C109.087 59.4855 108.779 59.3979 108.471 59.3979C108.196 59.3979 107.947 59.4819 107.729 59.6442C107.51 59.8138 107.355 60.0418 107.262 60.3355C107.121 60.7842 107.052 61.2748 107.052 61.8074V65.7015H105.792ZM102.574 61.9661C102.116 62.1576 101.431 62.3163 100.519 62.4458C100.001 62.5206 99.6321 62.6045 99.4169 62.6938C99.2016 62.7869 99.0393 62.9273 98.9226 63.1042C98.8058 63.2866 98.7457 63.4836 98.7457 63.7079C98.7457 64.0436 98.8752 64.319 99.1287 64.5433C99.3804 64.7677 99.7543 64.8789 100.243 64.8789C100.73 64.8789 101.159 64.7768 101.536 64.5616C101.916 64.3518 102.195 64.0581 102.373 63.6879C102.508 63.4033 102.574 62.9838 102.574 62.433V61.9661ZM102.682 64.7804C102.215 65.1781 101.766 65.4589 101.332 65.6213C100.902 65.7854 100.44 65.8639 99.9458 65.8639C99.1287 65.8639 98.4976 65.6687 98.058 65.2674C97.6239 64.8698 97.3996 64.3609 97.3996 63.7408C97.3996 63.376 97.4835 63.044 97.6531 62.7413C97.8154 62.4421 98.0343 62.1995 98.3006 62.0171C98.5669 61.8347 98.8715 61.6943 99.2071 61.6068C99.4552 61.5411 99.8291 61.4754 100.327 61.4152C101.347 61.293 102.093 61.1489 102.574 60.9811C102.583 60.8079 102.583 60.7003 102.583 60.6528C102.583 60.1403 102.461 59.7755 102.224 59.5694C101.907 59.2812 101.425 59.1408 100.79 59.1408C100.198 59.1408 99.7634 59.2393 99.4789 59.449C99.1925 59.6588 98.9882 60.0236 98.8478 60.5562L97.6203 60.3829C97.7315 59.8594 97.9139 59.4308 98.1711 59.1079C98.4283 58.7851 98.8004 58.5297 99.2874 58.3565C99.7671 58.1832 100.332 58.0956 100.973 58.0956C101.607 58.0956 102.12 58.1686 102.518 58.3182C102.915 58.4677 103.209 58.6556 103.395 58.8836C103.583 59.1134 103.712 59.3925 103.787 59.7427C103.829 59.9579 103.849 60.3446 103.849 60.9009V62.5826C103.849 63.759 103.876 64.4959 103.933 64.8096C103.984 65.1179 104.092 65.417 104.25 65.7015H102.933C102.802 65.4389 102.718 65.1361 102.682 64.7804ZM86.0017 65.7015V55.4327H88.0482L90.4759 62.703C90.7002 63.3796 90.8625 63.8849 90.9665 64.2205C91.0832 63.852 91.2638 63.3012 91.5119 62.5771L93.9687 55.4327H95.7982V65.7015H94.4867V57.1089L91.5082 65.7015H90.2789L87.3095 56.9648V65.7015H86.0017Z" fill="#71BF45"/>
<path d="M241.457 55.5112C240.417 55.5112 239.477 55.2812 238.637 54.8212C237.807 54.3612 237.152 53.7262 236.672 52.9162C236.202 52.0962 235.967 51.1812 235.967 50.1712C235.967 49.1612 236.202 48.2512 236.672 47.4412C237.152 46.6212 237.812 45.9812 238.652 45.5212C239.492 45.0612 240.432 44.8312 241.472 44.8312C242.252 44.8312 242.972 44.9612 243.632 45.2212C244.292 45.4812 244.852 45.8612 245.312 46.3612L244.607 47.0662C243.787 46.2362 242.752 45.8212 241.502 45.8212C240.672 45.8212 239.917 46.0112 239.237 46.3912C238.557 46.7712 238.022 47.2912 237.632 47.9512C237.252 48.6112 237.062 49.3512 237.062 50.1712C237.062 50.9912 237.252 51.7312 237.632 52.3912C238.022 53.0512 238.557 53.5712 239.237 53.9512C239.917 54.3312 240.672 54.5212 241.502 54.5212C242.762 54.5212 243.797 54.1012 244.607 53.2612L245.312 53.9662C244.852 54.4662 244.287 54.8512 243.617 55.1212C242.957 55.3812 242.237 55.5112 241.457 55.5112ZM252.679 48.4762H249.694V55.4212H248.629V48.4762H245.644V47.5312H252.679V48.4762ZM256.934 47.4712C257.964 47.4712 258.754 47.7312 259.304 48.2512C259.854 48.7612 260.129 49.5212 260.129 50.5312V55.4212H259.109V54.1912C258.869 54.6012 258.514 54.9212 258.044 55.1512C257.584 55.3812 257.034 55.4962 256.394 55.4962C255.514 55.4962 254.814 55.2862 254.294 54.8662C253.774 54.4462 253.514 53.8912 253.514 53.2012C253.514 52.5312 253.754 51.9912 254.234 51.5812C254.724 51.1712 255.499 50.9662 256.559 50.9662H259.064V50.4862C259.064 49.8062 258.874 49.2912 258.494 48.9412C258.114 48.5812 257.559 48.4012 256.829 48.4012C256.329 48.4012 255.849 48.4862 255.389 48.6562C254.929 48.8162 254.534 49.0412 254.204 49.3312L253.724 48.5362C254.124 48.1962 254.604 47.9362 255.164 47.7562C255.724 47.5662 256.314 47.4712 256.934 47.4712ZM256.559 54.6562C257.159 54.6562 257.674 54.5212 258.104 54.2512C258.534 53.9712 258.854 53.5712 259.064 53.0512V51.7612H256.589C255.239 51.7612 254.564 52.2312 254.564 53.1712C254.564 53.6312 254.739 53.9962 255.089 54.2662C255.439 54.5262 255.929 54.6562 256.559 54.6562ZM268.514 48.4762H265.529V55.4212H264.464V48.4762H261.479V47.5312H268.514V48.4762ZM270.054 47.5312H271.119V53.8012L276.384 47.5312H277.329V55.4212H276.264V49.1512L271.014 55.4212H270.054V47.5312ZM283.681 55.4962C282.901 55.4962 282.201 55.3262 281.581 54.9862C280.971 54.6462 280.491 54.1712 280.141 53.5612C279.791 52.9412 279.616 52.2462 279.616 51.4762C279.616 50.7062 279.791 50.0162 280.141 49.4062C280.491 48.7962 280.971 48.3212 281.581 47.9812C282.201 47.6412 282.901 47.4712 283.681 47.4712C284.361 47.4712 284.966 47.6062 285.496 47.8762C286.036 48.1362 286.461 48.5212 286.771 49.0312L285.976 49.5712C285.716 49.1812 285.386 48.8912 284.986 48.7012C284.586 48.5012 284.151 48.4012 283.681 48.4012C283.111 48.4012 282.596 48.5312 282.136 48.7912C281.686 49.0412 281.331 49.4012 281.071 49.8712C280.821 50.3412 280.696 50.8762 280.696 51.4762C280.696 52.0862 280.821 52.6262 281.071 53.0962C281.331 53.5562 281.686 53.9162 282.136 54.1762C282.596 54.4262 283.111 54.5512 283.681 54.5512C284.151 54.5512 284.586 54.4562 284.986 54.2662C285.386 54.0762 285.716 53.7862 285.976 53.3962L286.771 53.9362C286.461 54.4462 286.036 54.8362 285.496 55.1062C284.956 55.3662 284.351 55.4962 283.681 55.4962ZM294.237 48.4762H291.252V55.4212H290.187V48.4762H287.202V47.5312H294.237V48.4762ZM295.777 47.5312H296.842V53.8012L302.107 47.5312H303.052V55.4212H301.987V49.1512L296.737 55.4212H295.777V47.5312ZM308.969 51.9112H307.169V55.4212H306.104V47.5312H307.169V50.9962H308.984L311.759 47.5312H312.914L309.809 51.3562L313.139 55.4212H311.879L308.969 51.9112ZM317.388 47.4712C318.418 47.4712 319.208 47.7312 319.758 48.2512C320.308 48.7612 320.583 49.5212 320.583 50.5312V55.4212H319.563V54.1912C319.323 54.6012 318.968 54.9212 318.498 55.1512C318.038 55.3812 317.488 55.4962 316.848 55.4962C315.968 55.4962 315.268 55.2862 314.748 54.8662C314.228 54.4462 313.968 53.8912 313.968 53.2012C313.968 52.5312 314.208 51.9912 314.688 51.5812C315.178 51.1712 315.953 50.9662 317.013 50.9662H319.518V50.4862C319.518 49.8062 319.328 49.2912 318.948 48.9412C318.568 48.5812 318.013 48.4012 317.283 48.4012C316.783 48.4012 316.303 48.4862 315.843 48.6562C315.383 48.8162 314.988 49.0412 314.658 49.3312L314.178 48.5362C314.578 48.1962 315.058 47.9362 315.618 47.7562C316.178 47.5662 316.768 47.4712 317.388 47.4712ZM317.013 54.6562C317.613 54.6562 318.128 54.5212 318.558 54.2512C318.988 53.9712 319.308 53.5712 319.518 53.0512V51.7612H317.043C315.693 51.7612 315.018 52.2312 315.018 53.1712C315.018 53.6312 315.193 53.9962 315.543 54.2662C315.893 54.5262 316.383 54.6562 317.013 54.6562Z" fill="#66727E"/>
<path d="M394.963 44.9212V55.4212H393.898V47.0212L389.773 54.0862H389.248L385.123 47.0662V55.4212H384.058V44.9212H384.973L389.533 52.7062L394.048 44.9212H394.963ZM401.501 55.4962C400.741 55.4962 400.056 55.3262 399.446 54.9862C398.836 54.6362 398.356 54.1562 398.006 53.5462C397.656 52.9362 397.481 52.2462 397.481 51.4762C397.481 50.7062 397.656 50.0162 398.006 49.4062C398.356 48.7962 398.836 48.3212 399.446 47.9812C400.056 47.6412 400.741 47.4712 401.501 47.4712C402.261 47.4712 402.946 47.6412 403.556 47.9812C404.166 48.3212 404.641 48.7962 404.981 49.4062C405.331 50.0162 405.506 50.7062 405.506 51.4762C405.506 52.2462 405.331 52.9362 404.981 53.5462C404.641 54.1562 404.166 54.6362 403.556 54.9862C402.946 55.3262 402.261 55.4962 401.501 55.4962ZM401.501 54.5512C402.061 54.5512 402.561 54.4262 403.001 54.1762C403.451 53.9162 403.801 53.5512 404.051 53.0812C404.301 52.6112 404.426 52.0762 404.426 51.4762C404.426 50.8762 404.301 50.3412 404.051 49.8712C403.801 49.4012 403.451 49.0412 403.001 48.7912C402.561 48.5312 402.061 48.4012 401.501 48.4012C400.941 48.4012 400.436 48.5312 399.986 48.7912C399.546 49.0412 399.196 49.4012 398.936 49.8712C398.686 50.3412 398.561 50.8762 398.561 51.4762C398.561 52.0762 398.686 52.6112 398.936 53.0812C399.196 53.5512 399.546 53.9162 399.986 54.1762C400.436 54.4262 400.941 54.5512 401.501 54.5512ZM407.783 47.5312H408.848V53.8012L414.113 47.5312H415.058V55.4212H413.993V49.1512L408.743 55.4212H407.783V47.5312ZM427.586 48.4762H424.601V55.4212H423.536V48.4762H420.551V47.5312H427.586V48.4762ZM432.014 55.4962C431.254 55.4962 430.569 55.3262 429.959 54.9862C429.349 54.6362 428.869 54.1562 428.519 53.5462C428.169 52.9362 427.994 52.2462 427.994 51.4762C427.994 50.7062 428.169 50.0162 428.519 49.4062C428.869 48.7962 429.349 48.3212 429.959 47.9812C430.569 47.6412 431.254 47.4712 432.014 47.4712C432.774 47.4712 433.459 47.6412 434.069 47.9812C434.679 48.3212 435.154 48.7962 435.494 49.4062C435.844 50.0162 436.019 50.7062 436.019 51.4762C436.019 52.2462 435.844 52.9362 435.494 53.5462C435.154 54.1562 434.679 54.6362 434.069 54.9862C433.459 55.3262 432.774 55.4962 432.014 55.4962ZM432.014 54.5512C432.574 54.5512 433.074 54.4262 433.514 54.1762C433.964 53.9162 434.314 53.5512 434.564 53.0812C434.814 52.6112 434.939 52.0762 434.939 51.4762C434.939 50.8762 434.814 50.3412 434.564 49.8712C434.314 49.4012 433.964 49.0412 433.514 48.7912C433.074 48.5312 432.574 48.4012 432.014 48.4012C431.454 48.4012 430.949 48.5312 430.499 48.7912C430.059 49.0412 429.709 49.4012 429.449 49.8712C429.199 50.3412 429.074 50.8762 429.074 51.4762C429.074 52.0762 429.199 52.6112 429.449 53.0812C429.709 53.5512 430.059 53.9162 430.499 54.1762C430.949 54.4262 431.454 54.5512 432.014 54.5512ZM443.32 51.3412C444.39 51.5912 444.925 52.2362 444.925 53.2762C444.925 53.9662 444.67 54.4962 444.16 54.8662C443.65 55.2362 442.89 55.4212 441.88 55.4212H438.295V47.5312H441.775C442.675 47.5312 443.38 47.7062 443.89 48.0562C444.4 48.4062 444.655 48.9062 444.655 49.5562C444.655 49.9862 444.535 50.3562 444.295 50.6662C444.065 50.9662 443.74 51.1912 443.32 51.3412ZM439.33 51.0412H441.7C442.31 51.0412 442.775 50.9262 443.095 50.6962C443.425 50.4662 443.59 50.1312 443.59 49.6912C443.59 49.2512 443.425 48.9212 443.095 48.7012C442.775 48.4812 442.31 48.3712 441.7 48.3712H439.33V51.0412ZM441.835 54.5812C442.515 54.5812 443.025 54.4712 443.365 54.2512C443.705 54.0312 443.875 53.6862 443.875 53.2162C443.875 52.7462 443.72 52.4012 443.41 52.1812C443.1 51.9512 442.61 51.8362 441.94 51.8362H439.33V54.5812H441.835ZM450.136 47.4712C451.166 47.4712 451.956 47.7312 452.506 48.2512C453.056 48.7612 453.331 49.5212 453.331 50.5312V55.4212H452.311V54.1912C452.071 54.6012 451.716 54.9212 451.246 55.1512C450.786 55.3812 450.236 55.4962 449.596 55.4962C448.716 55.4962 448.016 55.2862 447.496 54.8662C446.976 54.4462 446.716 53.8912 446.716 53.2012C446.716 52.5312 446.956 51.9912 447.436 51.5812C447.926 51.1712 448.701 50.9662 449.761 50.9662H452.266V50.4862C452.266 49.8062 452.076 49.2912 451.696 48.9412C451.316 48.5812 450.761 48.4012 450.031 48.4012C449.531 48.4012 449.051 48.4862 448.591 48.6562C448.131 48.8162 447.736 49.0412 447.406 49.3312L446.926 48.5362C447.326 48.1962 447.806 47.9362 448.366 47.7562C448.926 47.5662 449.516 47.4712 450.136 47.4712ZM449.761 54.6562C450.361 54.6562 450.876 54.5212 451.306 54.2512C451.736 53.9712 452.056 53.5712 452.266 53.0512V51.7612H449.791C448.441 51.7612 447.766 52.2312 447.766 53.1712C447.766 53.6312 447.941 53.9962 448.291 54.2662C448.641 54.5262 449.131 54.6562 449.761 54.6562ZM460.231 47.4712C460.971 47.4712 461.641 47.6412 462.241 47.9812C462.841 48.3112 463.311 48.7812 463.651 49.3912C463.991 50.0012 464.161 50.6962 464.161 51.4762C464.161 52.2662 463.991 52.9662 463.651 53.5762C463.311 54.1862 462.841 54.6612 462.241 55.0012C461.651 55.3312 460.981 55.4962 460.231 55.4962C459.591 55.4962 459.011 55.3662 458.491 55.1062C457.981 54.8362 457.561 54.4462 457.231 53.9362V58.3312H456.166V47.5312H457.186V49.0912C457.506 48.5712 457.926 48.1712 458.446 47.8912C458.976 47.6112 459.571 47.4712 460.231 47.4712ZM460.156 54.5512C460.706 54.5512 461.206 54.4262 461.656 54.1762C462.106 53.9162 462.456 53.5512 462.706 53.0812C462.966 52.6112 463.096 52.0762 463.096 51.4762C463.096 50.8762 462.966 50.3462 462.706 49.8862C462.456 49.4162 462.106 49.0512 461.656 48.7912C461.206 48.5312 460.706 48.4012 460.156 48.4012C459.596 48.4012 459.091 48.5312 458.641 48.7912C458.201 49.0512 457.851 49.4162 457.591 49.8862C457.341 50.3462 457.216 50.8762 457.216 51.4762C457.216 52.0762 457.341 52.6112 457.591 53.0812C457.851 53.5512 458.201 53.9162 458.641 54.1762C459.091 54.4262 459.596 54.5512 460.156 54.5512ZM469.765 50.3212C470.755 50.3312 471.51 50.5512 472.03 50.9812C472.55 51.4112 472.81 52.0312 472.81 52.8412C472.81 53.6812 472.53 54.3262 471.97 54.7762C471.41 55.2262 470.61 55.4462 469.57 55.4362L466.45 55.4212V47.5312H467.515V50.2912L469.765 50.3212ZM474.13 47.5312H475.195V55.4212H474.13V47.5312ZM469.51 54.6262C470.24 54.6362 470.79 54.4912 471.16 54.1912C471.54 53.8812 471.73 53.4312 471.73 52.8412C471.73 52.2612 471.545 51.8312 471.175 51.5512C470.805 51.2712 470.25 51.1262 469.51 51.1162L467.515 51.0862V54.5962L469.51 54.6262Z" fill="#66727E"/>
<rect width="97" height="31" transform="translate(537 34.5)" fill="white"/>
<path d="M548.304 55L548.289 48.04L544.839 53.8H543.969L540.519 48.13V55H538.674V44.5H540.279L544.434 51.445L548.544 44.5H550.134L550.164 55H548.304ZM556.463 55.105C555.653 55.105 554.923 54.93 554.273 54.58C553.623 54.23 553.113 53.745 552.743 53.125C552.383 52.495 552.203 51.785 552.203 50.995C552.203 50.205 552.383 49.5 552.743 48.88C553.113 48.26 553.623 47.775 554.273 47.425C554.923 47.075 555.653 46.9 556.463 46.9C557.283 46.9 558.018 47.075 558.668 47.425C559.318 47.775 559.823 48.26 560.183 48.88C560.553 49.5 560.738 50.205 560.738 50.995C560.738 51.785 560.553 52.495 560.183 53.125C559.823 53.745 559.318 54.23 558.668 54.58C558.018 54.93 557.283 55.105 556.463 55.105ZM556.463 53.5C557.153 53.5 557.723 53.27 558.173 52.81C558.623 52.35 558.848 51.745 558.848 50.995C558.848 50.245 558.623 49.64 558.173 49.18C557.723 48.72 557.153 48.49 556.463 48.49C555.773 48.49 555.203 48.72 554.753 49.18C554.313 49.64 554.093 50.245 554.093 50.995C554.093 51.745 554.313 52.35 554.753 52.81C555.203 53.27 555.773 53.5 556.463 53.5ZM562.59 46.99H564.465V52.27L568.89 46.99H570.6V55H568.725V49.72L564.315 55H562.59V46.99ZM580.913 55.105C580.083 55.105 579.338 54.93 578.678 54.58C578.018 54.23 577.503 53.745 577.133 53.125C576.763 52.495 576.578 51.785 576.578 50.995C576.578 50.205 576.763 49.5 577.133 48.88C577.503 48.26 578.013 47.775 578.663 47.425C579.323 47.075 580.073 46.9 580.913 46.9C581.703 46.9 582.393 47.06 582.983 47.38C583.583 47.7 584.033 48.16 584.333 48.76L582.893 49.6C582.663 49.23 582.373 48.955 582.023 48.775C581.683 48.585 581.308 48.49 580.898 48.49C580.198 48.49 579.618 48.72 579.158 49.18C578.698 49.63 578.468 50.235 578.468 50.995C578.468 51.755 578.693 52.365 579.143 52.825C579.603 53.275 580.188 53.5 580.898 53.5C581.308 53.5 581.683 53.41 582.023 53.23C582.373 53.04 582.663 52.76 582.893 52.39L584.333 53.23C584.023 53.83 583.568 54.295 582.968 54.625C582.378 54.945 581.693 55.105 580.913 55.105ZM594.358 53.41V56.785H592.603V55H586.423V56.785H584.683V53.41H585.058C585.568 53.39 585.913 53.065 586.093 52.435C586.283 51.795 586.408 50.895 586.468 49.735L586.573 46.99H593.173V53.41H594.358ZM588.178 49.87C588.138 50.79 588.063 51.54 587.953 52.12C587.843 52.7 587.643 53.13 587.353 53.41H591.298V48.58H588.223L588.178 49.87ZM603.532 51.04C603.532 51.17 603.522 51.355 603.502 51.595H597.217C597.327 52.185 597.612 52.655 598.072 53.005C598.542 53.345 599.122 53.515 599.812 53.515C600.692 53.515 601.417 53.225 601.987 52.645L602.992 53.8C602.632 54.23 602.177 54.555 601.627 54.775C601.077 54.995 600.457 55.105 599.767 55.105C598.887 55.105 598.112 54.93 597.442 54.58C596.772 54.23 596.252 53.745 595.882 53.125C595.522 52.495 595.342 51.785 595.342 50.995C595.342 50.215 595.517 49.515 595.867 48.895C596.227 48.265 596.722 47.775 597.352 47.425C597.982 47.075 598.692 46.9 599.482 46.9C600.262 46.9 600.957 47.075 601.567 47.425C602.187 47.765 602.667 48.25 603.007 48.88C603.357 49.5 603.532 50.22 603.532 51.04ZM599.482 48.4C598.882 48.4 598.372 48.58 597.952 48.94C597.542 49.29 597.292 49.76 597.202 50.35H601.747C601.667 49.77 601.422 49.3 601.012 48.94C600.602 48.58 600.092 48.4 599.482 48.4ZM612.741 46.99V55H610.866V48.58H607.866L607.791 50.17C607.741 51.23 607.641 52.12 607.491 52.84C607.351 53.55 607.106 54.115 606.756 54.535C606.416 54.945 605.946 55.15 605.346 55.15C605.066 55.15 604.721 55.095 604.311 54.985L604.401 53.41C604.541 53.44 604.661 53.455 604.761 53.455C605.141 53.455 605.426 53.305 605.616 53.005C605.806 52.695 605.926 52.33 605.976 51.91C606.036 51.48 606.086 50.87 606.126 50.08L606.261 46.99H612.741ZM618.596 51.79H617.141V55H615.266V46.99H617.141V50.23H618.641L621.011 46.99H623.021L620.111 50.845L623.216 55H621.011L618.596 51.79ZM624.538 46.99H626.413V52.27L630.838 46.99H632.548V55H630.673V49.72L626.263 55H624.538V46.99Z" fill="#71BF45"/>
<path d="M700.813 55.5112C699.773 55.5112 698.833 55.2812 697.993 54.8212C697.163 54.3612 696.508 53.7262 696.028 52.9162C695.558 52.0962 695.323 51.1812 695.323 50.1712C695.323 49.1612 695.558 48.2512 696.028 47.4412C696.508 46.6212 697.168 45.9812 698.008 45.5212C698.848 45.0612 699.788 44.8312 700.828 44.8312C701.608 44.8312 702.328 44.9612 702.988 45.2212C703.648 45.4812 704.208 45.8612 704.668 46.3612L703.963 47.0662C703.143 46.2362 702.108 45.8212 700.858 45.8212C700.028 45.8212 699.273 46.0112 698.593 46.3912C697.913 46.7712 697.378 47.2912 696.988 47.9512C696.608 48.6112 696.418 49.3512 696.418 50.1712C696.418 50.9912 696.608 51.7312 696.988 52.3912C697.378 53.0512 697.913 53.5712 698.593 53.9512C699.273 54.3312 700.028 54.5212 700.858 54.5212C702.118 54.5212 703.153 54.1012 703.963 53.2612L704.668 53.9662C704.208 54.4662 703.643 54.8512 702.973 55.1212C702.313 55.3812 701.593 55.5112 700.813 55.5112ZM709.608 55.4962C708.848 55.4962 708.163 55.3262 707.553 54.9862C706.943 54.6362 706.463 54.1562 706.113 53.5462C705.763 52.9362 705.588 52.2462 705.588 51.4762C705.588 50.7062 705.763 50.0162 706.113 49.4062C706.463 48.7962 706.943 48.3212 707.553 47.9812C708.163 47.6412 708.848 47.4712 709.608 47.4712C710.368 47.4712 711.053 47.6412 711.663 47.9812C712.273 48.3212 712.748 48.7962 713.088 49.4062C713.438 50.0162 713.613 50.7062 713.613 51.4762C713.613 52.2462 713.438 52.9362 713.088 53.5462C712.748 54.1562 712.273 54.6362 711.663 54.9862C711.053 55.3262 710.368 55.4962 709.608 55.4962ZM709.608 54.5512C710.168 54.5512 710.668 54.4262 711.108 54.1762C711.558 53.9162 711.908 53.5512 712.158 53.0812C712.408 52.6112 712.533 52.0762 712.533 51.4762C712.533 50.8762 712.408 50.3412 712.158 49.8712C711.908 49.4012 711.558 49.0412 711.108 48.7912C710.668 48.5312 710.168 48.4012 709.608 48.4012C709.048 48.4012 708.543 48.5312 708.093 48.7912C707.653 49.0412 707.303 49.4012 707.043 49.8712C706.793 50.3412 706.668 50.8762 706.668 51.4762C706.668 52.0762 706.793 52.6112 707.043 53.0812C707.303 53.5512 707.653 53.9162 708.093 54.1762C708.543 54.4262 709.048 54.5512 709.608 54.5512ZM719.145 55.4962C718.385 55.4962 717.7 55.3262 717.09 54.9862C716.48 54.6362 716 54.1562 715.65 53.5462C715.3 52.9362 715.125 52.2462 715.125 51.4762C715.125 50.7062 715.3 50.0162 715.65 49.4062C716 48.7962 716.48 48.3212 717.09 47.9812C717.7 47.6412 718.385 47.4712 719.145 47.4712C719.905 47.4712 720.59 47.6412 721.2 47.9812C721.81 48.3212 722.285 48.7962 722.625 49.4062C722.975 50.0162 723.15 50.7062 723.15 51.4762C723.15 52.2462 722.975 52.9362 722.625 53.5462C722.285 54.1562 721.81 54.6362 721.2 54.9862C720.59 55.3262 719.905 55.4962 719.145 55.4962ZM719.145 54.5512C719.705 54.5512 720.205 54.4262 720.645 54.1762C721.095 53.9162 721.445 53.5512 721.695 53.0812C721.945 52.6112 722.07 52.0762 722.07 51.4762C722.07 50.8762 721.945 50.3412 721.695 49.8712C721.445 49.4012 721.095 49.0412 720.645 48.7912C720.205 48.5312 719.705 48.4012 719.145 48.4012C718.585 48.4012 718.08 48.5312 717.63 48.7912C717.19 49.0412 716.84 49.4012 716.58 49.8712C716.33 50.3412 716.205 50.8762 716.205 51.4762C716.205 52.0762 716.33 52.6112 716.58 53.0812C716.84 53.5512 717.19 53.9162 717.63 54.1762C718.08 54.4262 718.585 54.5512 719.145 54.5512ZM729.251 47.7262C729.981 47.7262 730.631 47.8912 731.201 48.2212C731.781 48.5412 732.231 48.9962 732.551 49.5862C732.871 50.1662 733.031 50.8312 733.031 51.5812C733.031 52.3512 732.861 53.0362 732.521 53.6362C732.191 54.2262 731.726 54.6862 731.126 55.0162C730.526 55.3462 729.836 55.5112 729.056 55.5112C727.746 55.5112 726.731 55.0512 726.011 54.1312C725.291 53.2112 724.931 51.9412 724.931 50.3212C724.931 48.6312 725.251 47.3362 725.891 46.4362C726.541 45.5362 727.551 44.9262 728.921 44.6062L732.461 43.7962L732.641 44.7712L729.311 45.5362C728.181 45.7862 727.351 46.2312 726.821 46.8712C726.291 47.5012 726.001 48.4362 725.951 49.6762C726.271 49.0662 726.716 48.5912 727.286 48.2512C727.856 47.9012 728.511 47.7262 729.251 47.7262ZM729.086 54.6262C729.636 54.6262 730.126 54.5012 730.556 54.2512C730.996 53.9912 731.336 53.6312 731.576 53.1712C731.826 52.7112 731.951 52.1912 731.951 51.6112C731.951 51.0312 731.831 50.5212 731.591 50.0812C731.351 49.6412 731.011 49.3012 730.571 49.0612C730.141 48.8112 729.646 48.6862 729.086 48.6862C728.526 48.6862 728.026 48.8112 727.586 49.0612C727.156 49.3012 726.816 49.6412 726.566 50.0812C726.326 50.5212 726.206 51.0312 726.206 51.6112C726.206 52.1912 726.326 52.7112 726.566 53.1712C726.816 53.6312 727.161 53.9912 727.601 54.2512C728.041 54.5012 728.536 54.6262 729.086 54.6262ZM746.203 47.5312V55.4212H735.313V47.5312H736.378V54.4912H740.248V47.5312H741.313V54.4912H745.138V47.5312H746.203ZM747.418 54.4912V57.1462H746.413V55.4212H745.078V54.4912H747.418ZM756.144 51.8062H749.544C749.604 52.6262 749.919 53.2912 750.489 53.8012C751.059 54.3012 751.779 54.5512 752.649 54.5512C753.139 54.5512 753.589 54.4662 753.999 54.2962C754.409 54.1162 754.764 53.8562 755.064 53.5162L755.664 54.2062C755.314 54.6262 754.874 54.9462 754.344 55.1662C753.824 55.3862 753.249 55.4962 752.619 55.4962C751.809 55.4962 751.089 55.3262 750.459 54.9862C749.839 54.6362 749.354 54.1562 749.004 53.5462C748.654 52.9362 748.479 52.2462 748.479 51.4762C748.479 50.7062 748.644 50.0162 748.974 49.4062C749.314 48.7962 749.774 48.3212 750.354 47.9812C750.944 47.6412 751.604 47.4712 752.334 47.4712C753.064 47.4712 753.719 47.6412 754.299 47.9812C754.879 48.3212 755.334 48.7962 755.664 49.4062C755.994 50.0062 756.159 50.6962 756.159 51.4762L756.144 51.8062ZM752.334 48.3862C751.574 48.3862 750.934 48.6312 750.414 49.1212C749.904 49.6012 749.614 50.2312 749.544 51.0112H755.139C755.069 50.2312 754.774 49.6012 754.254 49.1212C753.744 48.6312 753.104 48.3862 752.334 48.3862ZM758.516 47.5312H759.581V51.0262H764.546V47.5312H765.611V55.4212H764.546V51.9412H759.581V55.4212H758.516V47.5312ZM768.639 47.5312H769.704V53.8012L774.969 47.5312H775.914V55.4212H774.849V49.1512L769.599 55.4212H768.639V47.5312ZM785.026 47.5312V55.4212H784.051V52.8112H781.576H781.276L779.446 55.4212H778.291L780.256 52.6612C779.646 52.4912 779.176 52.2012 778.846 51.7912C778.516 51.3812 778.351 50.8612 778.351 50.2312C778.351 49.3512 778.651 48.6812 779.251 48.2212C779.851 47.7612 780.671 47.5312 781.711 47.5312H785.026ZM779.431 50.2612C779.431 51.4312 780.176 52.0162 781.666 52.0162H784.051V48.4762H781.741C780.201 48.4762 779.431 49.0712 779.431 50.2612Z" fill="#66727E"/>
<path d="M1714.84 41.35V45.235H1713.04V43H1704.99V45.235H1703.17L1703.19 41.35H1703.64C1704.3 41.32 1704.76 40.835 1705.02 39.895C1705.29 38.945 1705.45 37.59 1705.51 35.83L1705.63 32.5H1713.33V41.35H1714.84ZM1707.22 36.01C1707.17 37.37 1707.06 38.505 1706.89 39.415C1706.72 40.315 1706.45 40.96 1706.08 41.35H1711.41V34.15H1707.3L1707.22 36.01ZM1719.45 34.9C1720.63 34.9 1721.53 35.185 1722.15 35.755C1722.78 36.315 1723.1 37.165 1723.1 38.305V43H1721.33V42.025C1721.1 42.375 1720.77 42.645 1720.34 42.835C1719.92 43.015 1719.41 43.105 1718.81 43.105C1718.21 43.105 1717.68 43.005 1717.23 42.805C1716.78 42.595 1716.43 42.31 1716.18 41.95C1715.94 41.58 1715.82 41.165 1715.82 40.705C1715.82 39.985 1716.09 39.41 1716.62 38.98C1717.16 38.54 1718 38.32 1719.15 38.32H1721.22V38.2C1721.22 37.64 1721.05 37.21 1720.71 36.91C1720.38 36.61 1719.89 36.46 1719.23 36.46C1718.78 36.46 1718.33 36.53 1717.89 36.67C1717.46 36.81 1717.1 37.005 1716.8 37.255L1716.06 35.89C1716.48 35.57 1716.99 35.325 1717.58 35.155C1718.17 34.985 1718.79 34.9 1719.45 34.9ZM1719.2 41.74C1719.67 41.74 1720.08 41.635 1720.44 41.425C1720.81 41.205 1721.07 40.895 1721.22 40.495V39.565H1719.29C1718.21 39.565 1717.67 39.92 1717.67 40.63C1717.67 40.97 1717.8 41.24 1718.07 41.44C1718.34 41.64 1718.72 41.74 1719.2 41.74ZM1729.86 34.9C1730.64 34.9 1731.34 35.07 1731.95 35.41C1732.57 35.75 1733.05 36.23 1733.4 36.85C1733.75 37.47 1733.93 38.185 1733.93 38.995C1733.93 39.805 1733.75 40.525 1733.4 41.155C1733.05 41.775 1732.57 42.255 1731.95 42.595C1731.34 42.935 1730.64 43.105 1729.86 43.105C1728.78 43.105 1727.93 42.745 1727.3 42.025V45.91H1725.42V34.99H1727.21V36.04C1727.52 35.66 1727.9 35.375 1728.35 35.185C1728.81 34.995 1729.31 34.9 1729.86 34.9ZM1729.65 41.5C1730.34 41.5 1730.91 41.27 1731.35 40.81C1731.8 40.35 1732.02 39.745 1732.02 38.995C1732.02 38.245 1731.8 37.64 1731.35 37.18C1730.91 36.72 1730.34 36.49 1729.65 36.49C1729.2 36.49 1728.8 36.595 1728.44 36.805C1728.08 37.005 1727.79 37.295 1727.58 37.675C1727.37 38.055 1727.27 38.495 1727.27 38.995C1727.27 39.495 1727.37 39.935 1727.58 40.315C1727.79 40.695 1728.08 40.99 1728.44 41.2C1728.8 41.4 1729.2 41.5 1729.65 41.5ZM1739.69 37.63C1740.71 37.63 1741.49 37.86 1742.03 38.32C1742.57 38.78 1742.84 39.43 1742.84 40.27C1742.84 41.15 1742.54 41.83 1741.94 42.31C1741.35 42.79 1740.51 43.025 1739.42 43.015L1735.79 43V34.99H1737.67V37.615L1739.69 37.63ZM1743.88 34.99H1745.75V43H1743.88V34.99ZM1739.26 41.635C1739.81 41.645 1740.23 41.53 1740.52 41.29C1740.81 41.05 1740.95 40.7 1740.95 40.24C1740.95 39.79 1740.81 39.46 1740.53 39.25C1740.25 39.04 1739.83 38.93 1739.26 38.92L1737.67 38.905V41.62L1739.26 41.635ZM1756.5 38.575H1754.55V43H1752.63V32.5H1754.55V36.895H1756.56L1759.57 32.5H1761.64L1758.06 37.585L1761.78 43H1759.57L1756.5 38.575ZM1770.35 34.99L1766.6 43.645C1766.25 44.515 1765.82 45.125 1765.32 45.475C1764.82 45.835 1764.22 46.015 1763.51 46.015C1763.11 46.015 1762.71 45.95 1762.32 45.82C1761.93 45.69 1761.61 45.51 1761.36 45.28L1762.11 43.9C1762.29 44.07 1762.5 44.205 1762.74 44.305C1762.99 44.405 1763.24 44.455 1763.49 44.455C1763.82 44.455 1764.09 44.37 1764.3 44.2C1764.52 44.03 1764.72 43.745 1764.9 43.345L1765.04 43.03L1761.54 34.99H1763.49L1766.01 40.915L1768.55 34.99H1770.35ZM1775.91 35.38C1776.67 35.38 1777.34 35.545 1777.92 35.875C1778.5 36.195 1778.95 36.645 1779.27 37.225C1779.6 37.805 1779.77 38.47 1779.77 39.22C1779.77 39.99 1779.59 40.675 1779.23 41.275C1778.87 41.865 1778.36 42.325 1777.71 42.655C1777.06 42.985 1776.32 43.15 1775.49 43.15C1774.1 43.15 1773.03 42.69 1772.27 41.77C1771.51 40.85 1771.13 39.525 1771.13 37.795C1771.13 36.185 1771.47 34.91 1772.16 33.97C1772.85 33.03 1773.91 32.41 1775.33 32.11L1779.05 31.315L1779.32 32.995L1775.94 33.685C1774.97 33.885 1774.25 34.225 1773.77 34.705C1773.29 35.185 1773.01 35.86 1772.93 36.73C1773.29 36.3 1773.72 35.97 1774.23 35.74C1774.74 35.5 1775.3 35.38 1775.91 35.38ZM1775.54 41.635C1776.23 41.635 1776.78 41.415 1777.2 40.975C1777.63 40.525 1777.85 39.955 1777.85 39.265C1777.85 38.575 1777.63 38.02 1777.2 37.6C1776.78 37.18 1776.23 36.97 1775.54 36.97C1774.84 36.97 1774.27 37.18 1773.84 37.6C1773.41 38.02 1773.2 38.575 1773.2 39.265C1773.2 39.965 1773.41 40.535 1773.84 40.975C1774.28 41.415 1774.85 41.635 1775.54 41.635ZM1784.46 34.9C1785.64 34.9 1786.54 35.185 1787.16 35.755C1787.79 36.315 1788.11 37.165 1788.11 38.305V43H1786.34V42.025C1786.11 42.375 1785.78 42.645 1785.35 42.835C1784.93 43.015 1784.42 43.105 1783.82 43.105C1783.22 43.105 1782.69 43.005 1782.24 42.805C1781.79 42.595 1781.44 42.31 1781.19 41.95C1780.95 41.58 1780.83 41.165 1780.83 40.705C1780.83 39.985 1781.1 39.41 1781.63 38.98C1782.17 38.54 1783.01 38.32 1784.16 38.32H1786.23V38.2C1786.23 37.64 1786.06 37.21 1785.72 36.91C1785.39 36.61 1784.9 36.46 1784.24 36.46C1783.79 36.46 1783.34 36.53 1782.9 36.67C1782.47 36.81 1782.11 37.005 1781.81 37.255L1781.07 35.89C1781.49 35.57 1782 35.325 1782.59 35.155C1783.18 34.985 1783.8 34.9 1784.46 34.9ZM1784.21 41.74C1784.68 41.74 1785.09 41.635 1785.45 41.425C1785.82 41.205 1786.08 40.895 1786.23 40.495V39.565H1784.3C1783.22 39.565 1782.68 39.92 1782.68 40.63C1782.68 40.97 1782.81 41.24 1783.08 41.44C1783.35 41.64 1783.73 41.74 1784.21 41.74ZM1790.43 34.99H1792.3V38.245H1796.34V34.99H1798.21V43H1796.34V39.835H1792.3V43H1790.43V34.99ZM1800.73 34.99H1802.6V40.27L1807.03 34.99H1808.74V43H1806.86V37.72L1802.45 43H1800.73V34.99Z" fill="#22262A"/>
<rect x="1644" y="53" width="166" height="19" rx="5" fill="#71BF45"/>
<path d="M1661.07 59.5V66.5H1660.34V60.14H1655.91V66.5H1655.18V59.5H1661.07ZM1665.43 66.55C1664.93 66.55 1664.47 66.4367 1664.06 66.21C1663.66 65.9767 1663.34 65.6567 1663.1 65.25C1662.87 64.8433 1662.75 64.3833 1662.75 63.87C1662.75 63.3567 1662.87 62.8967 1663.1 62.49C1663.34 62.0833 1663.66 61.7667 1664.06 61.54C1664.47 61.3133 1664.93 61.2 1665.43 61.2C1665.94 61.2 1666.4 61.3133 1666.8 61.54C1667.21 61.7667 1667.53 62.0833 1667.75 62.49C1667.99 62.8967 1668.1 63.3567 1668.1 63.87C1668.1 64.3833 1667.99 64.8433 1667.75 65.25C1667.53 65.6567 1667.21 65.9767 1666.8 66.21C1666.4 66.4367 1665.94 66.55 1665.43 66.55ZM1665.43 65.92C1665.81 65.92 1666.14 65.8367 1666.43 65.67C1666.73 65.4967 1666.97 65.2533 1667.13 64.94C1667.3 64.6267 1667.38 64.27 1667.38 63.87C1667.38 63.47 1667.3 63.1133 1667.13 62.8C1666.97 62.4867 1666.73 62.2467 1666.43 62.08C1666.14 61.9067 1665.81 61.82 1665.43 61.82C1665.06 61.82 1664.72 61.9067 1664.42 62.08C1664.13 62.2467 1663.9 62.4867 1663.72 62.8C1663.56 63.1133 1663.47 63.47 1663.47 63.87C1663.47 64.27 1663.56 64.6267 1663.72 64.94C1663.9 65.2533 1664.13 65.4967 1664.42 65.67C1664.72 65.8367 1665.06 65.92 1665.43 65.92ZM1671.82 66.55C1671.3 66.55 1670.83 66.4367 1670.42 66.21C1670.01 65.9833 1669.69 65.6667 1669.46 65.26C1669.23 64.8467 1669.11 64.3833 1669.11 63.87C1669.11 63.3567 1669.23 62.8967 1669.46 62.49C1669.69 62.0833 1670.01 61.7667 1670.42 61.54C1670.83 61.3133 1671.3 61.2 1671.82 61.2C1672.27 61.2 1672.68 61.29 1673.03 61.47C1673.39 61.6433 1673.67 61.9 1673.88 62.24L1673.35 62.6C1673.18 62.34 1672.96 62.1467 1672.69 62.02C1672.42 61.8867 1672.13 61.82 1671.82 61.82C1671.44 61.82 1671.1 61.9067 1670.79 62.08C1670.49 62.2467 1670.25 62.4867 1670.08 62.8C1669.91 63.1133 1669.83 63.47 1669.83 63.87C1669.83 64.2767 1669.91 64.6367 1670.08 64.95C1670.25 65.2567 1670.49 65.4967 1670.79 65.67C1671.1 65.8367 1671.44 65.92 1671.82 65.92C1672.13 65.92 1672.42 65.8567 1672.69 65.73C1672.96 65.6033 1673.18 65.41 1673.35 65.15L1673.88 65.51C1673.67 65.85 1673.39 66.11 1673.03 66.29C1672.67 66.4633 1672.27 66.55 1671.82 66.55ZM1678.86 61.87H1676.87V66.5H1676.16V61.87H1674.17V61.24H1678.86V61.87ZM1681.69 61.2C1682.38 61.2 1682.91 61.3733 1683.27 61.72C1683.64 62.06 1683.82 62.5667 1683.82 63.24V66.5H1683.14V65.68C1682.98 65.9533 1682.75 66.1667 1682.43 66.32C1682.13 66.4733 1681.76 66.55 1681.33 66.55C1680.75 66.55 1680.28 66.41 1679.93 66.13C1679.59 65.85 1679.41 65.48 1679.41 65.02C1679.41 64.5733 1679.57 64.2133 1679.89 63.94C1680.22 63.6667 1680.74 63.53 1681.44 63.53H1683.11V63.21C1683.11 62.7567 1682.99 62.4133 1682.73 62.18C1682.48 61.94 1682.11 61.82 1681.62 61.82C1681.29 61.82 1680.97 61.8767 1680.66 61.99C1680.36 62.0967 1680.09 62.2467 1679.87 62.44L1679.55 61.91C1679.82 61.6833 1680.14 61.51 1680.51 61.39C1680.89 61.2633 1681.28 61.2 1681.69 61.2ZM1681.44 65.99C1681.84 65.99 1682.19 65.9 1682.47 65.72C1682.76 65.5333 1682.97 65.2667 1683.11 64.92V64.06H1681.46C1680.56 64.06 1680.11 64.3733 1680.11 65C1680.11 65.3067 1680.23 65.55 1680.46 65.73C1680.7 65.9033 1681.02 65.99 1681.44 65.99ZM1689.06 63.78C1689.78 63.9467 1690.13 64.3767 1690.13 65.07C1690.13 65.53 1689.96 65.8833 1689.62 66.13C1689.28 66.3767 1688.78 66.5 1688.1 66.5H1685.71V61.24H1688.03C1688.63 61.24 1689.1 61.3567 1689.44 61.59C1689.78 61.8233 1689.95 62.1567 1689.95 62.59C1689.95 62.8767 1689.87 63.1233 1689.71 63.33C1689.56 63.53 1689.34 63.68 1689.06 63.78ZM1686.4 63.58H1687.98C1688.39 63.58 1688.7 63.5033 1688.91 63.35C1689.13 63.1967 1689.24 62.9733 1689.24 62.68C1689.24 62.3867 1689.13 62.1667 1688.91 62.02C1688.7 61.8733 1688.39 61.8 1687.98 61.8H1686.4V63.58ZM1688.07 65.94C1688.53 65.94 1688.87 65.8667 1689.09 65.72C1689.32 65.5733 1689.43 65.3433 1689.43 65.03C1689.43 64.7167 1689.33 64.4867 1689.12 64.34C1688.92 64.1867 1688.59 64.11 1688.14 64.11H1686.4V65.94H1688.07ZM1699.06 61.24V66.5H1691.8V61.24H1692.51V65.88H1695.09V61.24H1695.8V65.88H1698.35V61.24H1699.06ZM1699.87 65.88V67.65H1699.2V66.5H1698.31V65.88H1699.87ZM1701.08 61.24H1701.79V65.42L1705.3 61.24H1705.93V66.5H1705.22V62.32L1701.72 66.5H1701.08V61.24ZM1709.88 64.16H1708.68V66.5H1707.97V61.24H1708.68V63.55H1709.89L1711.74 61.24H1712.51L1710.44 63.79L1712.66 66.5H1711.82L1709.88 64.16ZM1719.48 64.53C1719.28 64.53 1719.1 64.4567 1718.95 64.31C1718.81 64.1633 1718.73 63.98 1718.73 63.76C1718.73 63.5467 1718.81 63.37 1718.95 63.23C1719.1 63.0833 1719.28 63.01 1719.48 63.01C1719.69 63.01 1719.87 63.0833 1720.01 63.23C1720.16 63.37 1720.23 63.5467 1720.23 63.76C1720.23 63.9733 1720.16 64.1567 1720.01 64.31C1719.87 64.4567 1719.69 64.53 1719.48 64.53ZM1729.01 61.2C1729.69 61.2 1730.22 61.3733 1730.59 61.72C1730.95 62.06 1731.14 62.5667 1731.14 63.24V66.5H1730.46V65.68C1730.3 65.9533 1730.06 66.1667 1729.75 66.32C1729.44 66.4733 1729.07 66.55 1728.65 66.55C1728.06 66.55 1727.59 66.41 1727.25 66.13C1726.9 65.85 1726.73 65.48 1726.73 65.02C1726.73 64.5733 1726.89 64.2133 1727.21 63.94C1727.53 63.6667 1728.05 63.53 1728.76 63.53H1730.43V63.21C1730.43 62.7567 1730.3 62.4133 1730.05 62.18C1729.79 61.94 1729.42 61.82 1728.94 61.82C1728.6 61.82 1728.28 61.8767 1727.98 61.99C1727.67 62.0967 1727.41 62.2467 1727.19 62.44L1726.87 61.91C1727.13 61.6833 1727.45 61.51 1727.83 61.39C1728.2 61.2633 1728.59 61.2 1729.01 61.2ZM1728.76 65.99C1729.16 65.99 1729.5 65.9 1729.79 65.72C1730.07 65.5333 1730.29 65.2667 1730.43 64.92V64.06H1728.78C1727.88 64.06 1727.43 64.3733 1727.43 65C1727.43 65.3067 1727.54 65.55 1727.78 65.73C1728.01 65.9033 1728.34 65.99 1728.76 65.99ZM1734.94 64.16H1733.74V66.5H1733.03V61.24H1733.74V63.55H1734.95L1736.8 61.24H1737.57L1735.5 63.79L1737.72 66.5H1736.88L1734.94 64.16ZM1740.75 64.16H1739.55V66.5H1738.84V61.24H1739.55V63.55H1740.76L1742.61 61.24H1743.38L1741.31 63.79L1743.53 66.5H1742.69L1740.75 64.16ZM1747.36 61.2C1747.85 61.2 1748.3 61.3133 1748.7 61.54C1749.1 61.76 1749.41 62.0733 1749.64 62.48C1749.87 62.8867 1749.98 63.35 1749.98 63.87C1749.98 64.3967 1749.87 64.8633 1749.64 65.27C1749.41 65.6767 1749.1 65.9933 1748.7 66.22C1748.31 66.44 1747.86 66.55 1747.36 66.55C1746.93 66.55 1746.55 66.4633 1746.2 66.29C1745.86 66.11 1745.58 65.85 1745.36 65.51V68.44H1744.65V61.24H1745.33V62.28C1745.54 61.9333 1745.82 61.6667 1746.17 61.48C1746.52 61.2933 1746.92 61.2 1747.36 61.2ZM1747.31 65.92C1747.68 65.92 1748.01 65.8367 1748.31 65.67C1748.61 65.4967 1748.84 65.2533 1749.01 64.94C1749.18 64.6267 1749.27 64.27 1749.27 63.87C1749.27 63.47 1749.18 63.1167 1749.01 62.81C1748.84 62.4967 1748.61 62.2533 1748.31 62.08C1748.01 61.9067 1747.68 61.82 1747.31 61.82C1746.94 61.82 1746.6 61.9067 1746.3 62.08C1746.01 62.2533 1745.77 62.4967 1745.6 62.81C1745.43 63.1167 1745.35 63.47 1745.35 63.87C1745.35 64.27 1745.43 64.6267 1745.6 64.94C1745.77 65.2533 1746.01 65.4967 1746.3 65.67C1746.6 65.8367 1746.94 65.92 1747.31 65.92ZM1756.1 64.09H1751.7C1751.74 64.6367 1751.95 65.08 1752.33 65.42C1752.71 65.7533 1753.19 65.92 1753.77 65.92C1754.1 65.92 1754.4 65.8633 1754.67 65.75C1754.95 65.63 1755.18 65.4567 1755.38 65.23L1755.78 65.69C1755.55 65.97 1755.26 66.1833 1754.9 66.33C1754.56 66.4767 1754.17 66.55 1753.75 66.55C1753.21 66.55 1752.73 66.4367 1752.31 66.21C1751.9 65.9767 1751.58 65.6567 1751.34 65.25C1751.11 64.8433 1750.99 64.3833 1750.99 63.87C1750.99 63.3567 1751.1 62.8967 1751.32 62.49C1751.55 62.0833 1751.86 61.7667 1752.24 61.54C1752.64 61.3133 1753.08 61.2 1753.56 61.2C1754.05 61.2 1754.49 61.3133 1754.87 61.54C1755.26 61.7667 1755.56 62.0833 1755.78 62.49C1756 62.89 1756.11 63.35 1756.11 63.87L1756.1 64.09ZM1753.56 61.81C1753.06 61.81 1752.63 61.9733 1752.28 62.3C1751.94 62.62 1751.75 63.04 1751.7 63.56H1755.43C1755.39 63.04 1755.19 62.62 1754.84 62.3C1754.5 61.9733 1754.08 61.81 1753.56 61.81ZM1762.71 65.88V67.77H1762.04V66.5H1757.33V67.77H1756.66V65.88H1756.96C1757.31 65.86 1757.55 65.6 1757.68 65.1C1757.81 64.6 1757.89 63.9 1757.94 63L1758.01 61.24H1761.89V65.88H1762.71ZM1758.59 63.04C1758.56 63.7867 1758.49 64.4033 1758.4 64.89C1758.31 65.37 1758.14 65.7 1757.9 65.88H1761.18V61.87H1758.65L1758.59 63.04ZM1764.09 61.24H1764.8V65.42L1768.31 61.24H1768.94V66.5H1768.23V62.32L1764.73 66.5H1764.09V61.24ZM1774.68 61.87H1772.69V66.5H1771.98V61.87H1769.99V61.24H1774.68V61.87ZM1777.63 66.55C1777.12 66.55 1776.67 66.4367 1776.26 66.21C1775.85 65.9767 1775.53 65.6567 1775.3 65.25C1775.07 64.8433 1774.95 64.3833 1774.95 63.87C1774.95 63.3567 1775.07 62.8967 1775.3 62.49C1775.53 62.0833 1775.85 61.7667 1776.26 61.54C1776.67 61.3133 1777.12 61.2 1777.63 61.2C1778.14 61.2 1778.59 61.3133 1779 61.54C1779.41 61.7667 1779.72 62.0833 1779.95 62.49C1780.18 62.8967 1780.3 63.3567 1780.3 63.87C1780.3 64.3833 1780.18 64.8433 1779.95 65.25C1779.72 65.6567 1779.41 65.9767 1779 66.21C1778.59 66.4367 1778.14 66.55 1777.63 66.55ZM1777.63 65.92C1778 65.92 1778.34 65.8367 1778.63 65.67C1778.93 65.4967 1779.16 65.2533 1779.33 64.94C1779.5 64.6267 1779.58 64.27 1779.58 63.87C1779.58 63.47 1779.5 63.1133 1779.33 62.8C1779.16 62.4867 1778.93 62.2467 1778.63 62.08C1778.34 61.9067 1778 61.82 1777.63 61.82C1777.26 61.82 1776.92 61.9067 1776.62 62.08C1776.33 62.2467 1776.09 62.4867 1775.92 62.8C1775.75 63.1133 1775.67 63.47 1775.67 63.87C1775.67 64.27 1775.75 64.6267 1775.92 64.94C1776.09 65.2533 1776.33 65.4967 1776.62 65.67C1776.92 65.8367 1777.26 65.92 1777.63 65.92ZM1785.17 63.78C1785.88 63.9467 1786.24 64.3767 1786.24 65.07C1786.24 65.53 1786.07 65.8833 1785.73 66.13C1785.39 66.3767 1784.88 66.5 1784.21 66.5H1781.82V61.24H1784.14C1784.74 61.24 1785.21 61.3567 1785.55 61.59C1785.89 61.8233 1786.06 62.1567 1786.06 62.59C1786.06 62.8767 1785.98 63.1233 1785.82 63.33C1785.66 63.53 1785.45 63.68 1785.17 63.78ZM1782.51 63.58H1784.09C1784.49 63.58 1784.8 63.5033 1785.02 63.35C1785.24 63.1967 1785.35 62.9733 1785.35 62.68C1785.35 62.3867 1785.24 62.1667 1785.02 62.02C1784.8 61.8733 1784.49 61.8 1784.09 61.8H1782.51V63.58ZM1784.18 65.94C1784.63 65.94 1784.97 65.8667 1785.2 65.72C1785.42 65.5733 1785.54 65.3433 1785.54 65.03C1785.54 64.7167 1785.43 64.4867 1785.23 64.34C1785.02 64.1867 1784.69 64.11 1784.25 64.11H1782.51V65.94H1784.18ZM1789.71 61.2C1790.4 61.2 1790.92 61.3733 1791.29 61.72C1791.66 62.06 1791.84 62.5667 1791.84 63.24V66.5H1791.16V65.68C1791 65.9533 1790.76 66.1667 1790.45 66.32C1790.14 66.4733 1789.78 66.55 1789.35 66.55C1788.76 66.55 1788.3 66.41 1787.95 66.13C1787.6 65.85 1787.43 65.48 1787.43 65.02C1787.43 64.5733 1787.59 64.2133 1787.91 63.94C1788.24 63.6667 1788.75 63.53 1789.46 63.53H1791.13V63.21C1791.13 62.7567 1791 62.4133 1790.75 62.18C1790.5 61.94 1790.13 61.82 1789.64 61.82C1789.31 61.82 1788.99 61.8767 1788.68 61.99C1788.37 62.0967 1788.11 62.2467 1787.89 62.44L1787.57 61.91C1787.84 61.6833 1788.16 61.51 1788.53 61.39C1788.9 61.2633 1789.3 61.2 1789.71 61.2ZM1789.46 65.99C1789.86 65.99 1790.2 65.9 1790.49 65.72C1790.78 65.5333 1790.99 65.2667 1791.13 64.92V64.06H1789.48C1788.58 64.06 1788.13 64.3733 1788.13 65C1788.13 65.3067 1788.25 65.55 1788.48 65.73C1788.71 65.9033 1789.04 65.99 1789.46 65.99ZM1793.73 61.24H1794.44V63.57H1797.75V61.24H1798.46V66.5H1797.75V64.18H1794.44V66.5H1793.73V61.24Z" fill="white"/>
<g filter="url(#filter1_d)">
<rect x="1830" y="25" width="50" height="50" rx="25" fill="white"/>
<path d="M1847.5 57.9167L1847.58 57.3886C1847.79 56.0477 1848.66 54.8964 1849.97 54.5183C1851.28 54.1384 1853.08 53.75 1855 53.75C1856.92 53.75 1858.72 54.1384 1860.03 54.5183C1861.34 54.8964 1862.21 56.0477 1862.42 57.3886L1862.5 57.9167" stroke="#71BF45" stroke-width="2" stroke-linecap="round" stroke-linejoin="round"/>
<path d="M1855 50C1857.3 50 1859.17 48.1345 1859.17 45.8334C1859.17 43.5322 1857.3 41.6667 1855 41.6667C1852.7 41.6667 1850.83 43.5322 1850.83 45.8334C1850.83 48.1345 1852.7 50 1855 50Z" stroke="#71BF45" stroke-width="2" stroke-linecap="round" stroke-linejoin="round"/>
</g>
</g>
<defs>
<filter id="filter0_d" x="0" y="0" width="1920" height="101" filterUnits="userSpaceOnUse" color-interpolation-filters="sRGB">
<feFlood flood-opacity="0" result="BackgroundImageFix"/>
<feColorMatrix in="SourceAlpha" type="matrix" values="0 0 0 0 0 0 0 0 0 0 0 0 0 0 0 0 0 0 127 0" result="hardAlpha"/>
<feOffset dy="1"/>
<feColorMatrix type="matrix" values="0 0 0 0 0.831373 0 0 0 0 0.847059 0 0 0 0 0.858824 0 0 0 1 0"/>
<feBlend mode="normal" in2="BackgroundImageFix" result="effect1_dropShadow"/>
<feBlend mode="normal" in="SourceGraphic" in2="effect1_dropShadow" result="shape"/>
</filter>
<filter id="filter1_d" x="1820" y="19" width="70" height="70" filterUnits="userSpaceOnUse" color-interpolation-filters="sRGB">
<feFlood flood-opacity="0" result="BackgroundImageFix"/>
<feColorMatrix in="SourceAlpha" type="matrix" values="0 0 0 0 0 0 0 0 0 0 0 0 0 0 0 0 0 0 127 0" result="hardAlpha"/>
<feOffset dy="4"/>
<feGaussianBlur stdDeviation="5"/>
<feColorMatrix type="matrix" values="0 0 0 0 0.443137 0 0 0 0 0.74902 0 0 0 0 0.270588 0 0 0 0.32 0"/>
<feBlend mode="normal" in2="BackgroundImageFix" result="effect1_dropShadow"/>
<feBlend mode="normal" in="SourceGraphic" in2="effect1_dropShadow" result="shape"/>
</filter>
</defs>
</svg>
