<svg width="26" height="34" viewBox="0 0 26 34" fill="none" xmlns="http://www.w3.org/2000/svg">
<path d="M0.816895 0.421204V8.16388C4.7621 8.16388 8.04339 8.11281 11.5654 8.12193C12.7127 8.12193 13.7122 8.49584 14.5768 9.20535C15.4267 9.92399 16.0888 10.9272 16.5704 12.2222C17.0373 13.5099 17.2799 15.0274 17.289 16.7547C17.2799 18.5148 17.0373 20.0469 16.5704 21.3547C16.0888 22.6625 15.4304 23.6748 14.5768 24.3898C13.7177 25.1139 12.7127 25.4823 11.5654 25.4823L8.42642 25.6227C6.90525 28.158 5.49898 30.3431 3.39414 33.3454L11.6585 33.2286C13.7597 33.2013 15.6693 32.8219 17.3693 32.0376C19.0728 31.2588 20.5247 30.1279 21.7394 28.676C22.9524 27.2187 23.8826 25.4768 24.5264 23.4504C25.1575 21.4149 25.4694 19.155 25.4567 16.6617C25.4475 14.2103 25.1192 11.9924 24.4608 10.0042C23.8023 8.01979 22.8739 6.30527 21.6555 4.88077C20.4408 3.45261 18.9835 2.35459 17.2945 1.58853C15.6091 0.824297 13.7305 0.432148 11.6585 0.421204H0.816895Z" fill="#51668F"/>
</svg>
